<?xml version="1.0" encoding="UTF-8"?>
<svg width="50px" height="50px" viewBox="0 0 50 50" version="1.1" xmlns="http://www.w3.org/2000/svg" xmlns:xlink="http://www.w3.org/1999/xlink">
    <!-- Generator: Sketch 48.2 (47327) - http://www.bohemiancoding.com/sketch -->
    <title>starbucks</title>
    <desc>Created with Sketch.</desc>
    <defs></defs>
    <g id="Page-1" stroke="none" stroke-width="1" fill="none" fill-rule="evenodd">
        <g id="starbucks" fill-rule="nonzero">
            <path d="M49.6226667,25 C49.6226667,38.7611667 38.524,49.9166667 24.8333333,49.9166667 C11.1425,49.9166667 0.0438333333,38.7613333 0.0438333333,25 C0.0438333333,11.239 11.1425,0.0833333333 24.8333333,0.0833333333 C38.5241667,0.0833333333 49.6226667,11.239 49.6226667,25 Z" id="path3040" fill="#FFFFFF"></path>
            <g id="g4381" transform="translate(0.166667, 0.166667)">
                <path d="M24.4596667,8.775 C25.3323333,9.278 26.258,9.92533333 26.9626667,10.6113333 L26.6858333,10.8895 C25.2953333,10.7416667 23.8308333,10.9261667 22.5126667,10.9465 C22.3656667,10.7981667 22.0695,10.5751667 22.3453333,10.3888333 L24.4596667,8.775 Z M49.0465,26.0478333 C49.065,26.6755 49.124,27.2145 48.8791667,27.8568333 C46.3388333,28.5793333 44.6701667,25.8896667 42.2053333,26.2953333 L42.484,27.6895 C44.7643333,27.7645 46.1886667,29.9511667 48.5445,29.8571667 C48.2098333,30.5256667 48.6938333,32.2868333 47.211,31.5828333 C45.6718333,31.213 44.559,29.8571667 42.8723333,29.8571667 C42.6688333,30.2308333 42.7976667,30.7481667 42.762,31.1901667 C44.5413333,31.4693333 45.821,32.9731667 47.5998333,33.2508333 C47.4325,33.8621667 47.2666667,34.5466667 46.7656667,34.9195 C45.3185,34.5673333 44.1881667,33.2676667 42.6475,33.3048333 L42.3731667,34.585 C43.8373333,34.6226667 44.7833333,35.918 46.0991667,36.3068333 C46.1353333,36.8468333 45.6526667,37.3293333 45.3746667,37.8113333 C44.2065,37.4605 43.3156667,36.457 41.981,36.531 C41.9625,36.0281667 42.261,35.4571667 42.1483333,34.9195 C40.6493333,35.3653333 39.6441667,33.9725 38.5331667,33.137 C38.5011667,30.4028333 35.6228333,28.6091667 35.4708333,26.0478333 C35.4416667,25.5371667 35.5195,24.992 35.7521667,24.4061667 C36.6981667,22.2188333 36.401,19.379 35.3636667,17.3396667 C35.0485,16.803 34.49,16.3793333 33.9695,16.0638333 C34.731,17.6776667 35.659,19.5845 35.1958333,21.5681667 C35.1421667,23.1 34.2383333,24.5711667 34.228,26.0478333 C34.2245,26.5743333 34.3368333,27.1008333 34.6396667,27.6325 C35.8456667,29.8045 38.0153333,31.8605 37.1995,34.5845 C36.9751667,35.4211667 36.3071667,36.0681667 36.1405,36.9196667 C37.5513333,38.0881667 38.8853333,39.4048333 40.7573333,39.479 C41.4243333,39.053 41.0538333,37.1638333 42.426,38.0351667 L44.4295,39.0373333 C44.2835,39.5736667 43.8345,40.0543333 43.4278333,40.4236667 C42.6676667,40.0536667 41.9261667,39.6101667 40.9783333,39.6463333 C40.6988333,39.9428333 40.4583333,40.2756667 40.4796667,40.7011667 C41.1466667,40.811 41.7585,41.0925 42.3156667,41.4825 C42.057,42.0396667 41.5528333,42.3888333 41.0893333,42.8155 L39.5351667,42.2598333 C39.2756667,42.6311667 38.7366667,43.0213333 38.9258333,43.4288333 C39.2765,43.579 39.6655,43.782 39.9236667,44.0421667 C39.2376667,44.7836667 38.3681667,45.2606667 37.5315,45.764 C36.8108333,43.4085 34.4363333,41.757 34.6401667,39.033 L34.5298333,38.9228333 C33.9716667,39.5503333 34.1581667,40.5538333 34.1941667,41.3681667 C34.8621667,43.0743333 36.4555,44.3921667 36.6971667,46.2631667 C36.4181667,46.7446667 35.7891667,46.8406667 35.3066667,47.0445 C35.3626667,43.6711667 30.2458333,41.1126667 33.5271667,37.7005 C34.6215,36.0296667 36.455,34.4351667 35.8053333,32.1348333 C35.1383333,29.9138333 32.7791667,28.5376667 32.8,26.0478333 L32.8036667,25.8536667 C33.341,23.2571667 34.9733333,20.4943333 33.638,17.7321667 C33.2658333,16.6211667 32.4343333,15.3586667 31.3033333,14.8943333 C32.9895,16.8243333 33.658,19.9733333 32.6933333,22.5703333 C32.2071667,23.6033333 31.5378333,24.834 31.4706667,26.0483333 L31.4666667,26.0483333 C31.4308333,26.6825 31.5603333,27.3131667 31.9695,27.9111667 C33.2498333,29.9885 35.4735,32.2703333 34.1943333,34.9775 C32.7483333,37.1458333 30.2268333,39.3515 31.635,42.2075 C32.6546667,43.9131667 34.232,45.6151667 33.8065,47.712 L32.1378333,48.2676667 C33.2503333,44.3566667 27.7986667,42.0586667 30.0808333,38.1463333 C31.4898333,36.0513333 34.0098333,34.0856667 32.5833333,31.3051667 C31.7305,29.5823333 29.9683333,28.5626667 30.024,26.4096667 L30.0846667,26.0481667 C30.6588333,22.9946667 32.98,20.1043333 31.357,16.8413333 C30.9305,15.8778333 30.0781667,14.8955 29.1321667,14.3388333 L29.075,14.396 C30.9671667,16.2315 31.5428333,19.2515 30.5226667,21.6791667 C30.0466667,23.1035 29.002,24.5223333 28.7896667,26.0486667 C28.6886667,26.7683333 28.7738333,27.5141667 29.1896667,28.2998333 C30.3946667,30.208 32.5078333,32.2321667 31.1891667,34.6991667 C29.8005,36.7368333 27.4821667,38.7195 28.4081667,41.3693333 C29.4281667,43.6876667 31.558,45.8961667 30.408,48.7708333 L28.6861667,49.1596667 C30.0576667,46.3581667 28.0011667,43.5783333 26.7965,41.1486667 C25.331,37.6628333 29.9451667,35.9936667 30.0191667,32.8066667 C30.0016667,30.7496667 27.8148333,29.5816667 27.3526667,27.6906667 C26.4061667,26.8921667 25.4251667,28.0081667 24.2936667,27.801 C23.4583333,27.9688333 22.1753333,26.6511667 21.6766667,28.0795 C21.0828333,30.1735 18.3775,31.713 19.5665,34.1966667 C20.6978333,36.4038333 23.4205,38.0178333 22.511,40.8741667 C21.6966667,43.5421667 19.0066667,46.0825 20.675,49.1596667 C19.9896667,48.9376667 18.7098333,49.3626667 18.7283333,48.2678333 C17.672,44.5413333 22.1766667,42.3703333 20.7853333,38.6458333 C20.1378333,36.3645 17.1876667,35.1041667 17.8371667,32.3603333 C18.3173333,30.1016667 20.8518333,28.5226667 20.4963333,26.0485 C20.4675,25.8413333 20.4165,25.6293333 20.3436667,25.4083333 C19.3976667,22.7385 17.4676667,20.068 18.618,16.952 C18.9338333,16.062 19.5646667,15.302 20.119,14.5065 C18.2833333,15.4888333 17.3573333,17.566 17.3953333,19.6791667 C17.3153333,21.9771667 19.0128333,23.9456667 19.2543333,26.0485 C19.3493333,26.8971667 19.2103333,27.7661667 18.618,28.688 C17.4138333,30.322 15.839,32.0448333 16.561,34.1963333 C17.2475,36.3665 19.9541667,37.6811667 19.7873333,40.2036667 C19.769,43.1875 16.3018333,45.0453333 17.2845,48.3823333 L15.5588333,47.8225 C14.8736667,44.8571667 18.025,43.34 18.0611667,40.5963333 C18.5071667,37.4411667 14.483,36.2705 14.7245,33.1948333 C14.7071667,30.858 16.7641667,29.378 17.6726667,27.4123333 C17.8285,26.934 17.8803333,26.482 17.8595,26.0486667 C17.7481667,23.8753333 15.7898333,22.1761667 16.1148333,19.7326667 C16.2241667,17.9343333 16.836,16.358 18.0045,15.0055 C16.3923333,15.6531667 15.7263333,17.509 15.281,19.0666667 C14.5081667,21.5643333 16.353,23.811 16.538,26.0488333 C16.62,27.037 16.3785,28.0195 15.4486667,29.024 C14.113,30.598 12.7585,32.584 13.7228333,34.6995 C14.744,37.0336667 17.9521667,38.8505 16.5606667,41.7618333 C15.8015,43.5976667 13.9836667,44.9873333 14.0583333,47.1558333 C13.5766667,46.9518333 13.077,46.7485 12.6676667,46.3786667 C12.6676667,43.6166667 16.5966667,41.8915 14.7246667,38.9806667 C14.5588333,39.555 14.5231667,40.3355 14.3933333,40.9843333 C13.7436667,42.6723333 12.3536667,44.0235 11.8335,45.7685 C10.9636667,45.4328333 10.0541667,44.7275 9.33066667,43.986 L10.3328333,43.3726667 C10.2215,43.0011667 9.92533333,42.6863333 9.66633333,42.3711667 C9.0155,42.2796667 8.58816667,42.7066667 8.05166667,42.874 C7.58816667,42.4653333 7.14083333,42.0943333 6.77133333,41.5938333 C7.104,40.6463333 9.70333333,41.4298333 8.3865,39.872 C7.4975,39.3161667 6.60516667,40.1101667 5.82666667,40.4808333 L4.77133333,39.1478333 C5.67983333,38.5921667 6.586,37.8116667 7.716,38.0355 C7.9945,38.537 8.01383333,39.2745 8.55033333,39.5363333 C10.4603333,39.4991667 11.8136667,38.0545 13.2778333,36.9231667 C12.2573333,35.4046667 11.4266667,33.3083333 12.3331667,31.472 C13.0595,29.6318333 14.952,28.082 15.0378333,26.0476667 C15.0571667,25.5846667 14.985,25.0975 14.7825,24.5731667 C13.7818333,21.9956667 13.4286667,18.5121667 15.3386667,16.2308333 C14.3001667,16.5098333 13.6878333,17.8041667 13.335,18.787 C12.1868333,21.3038333 13.639,23.6355 13.6891667,26.0475 C13.696,26.4813333 13.6608333,26.9161667 13.5556667,27.3541667 C12.5726667,29.3378333 10.98,31.0783333 10.7213333,33.361 C9.59,34.0826667 8.66116667,35.3446667 7.04916667,34.9188333 C6.9925,35.3448333 7.12233333,35.9941667 7.27016667,36.4766667 C5.99183333,36.423 5.12016667,37.3651667 4.04383333,37.8101667 C3.4705,37.6261667 3.32133333,36.885 3.09933333,36.3663333 C4.35916667,35.9408333 5.268,34.6778333 6.7145,34.6978333 C6.88216667,34.232 6.6205,33.8051667 6.54666667,33.3606667 C4.74733333,32.562 1.89516667,37.3086667 1.65533333,33.1933333 C3.45333333,33.082 4.60233333,31.413 6.383,31.2466667 L6.43616667,29.9136667 C4.41533333,29.7095 3.11533333,31.787 1.09533333,31.5821667 L0.649833333,29.8033333 C2.9865,29.9493333 4.37866667,27.8553333 6.604,27.7426667 C6.89966667,27.3538333 6.93533333,26.779 6.99233333,26.2418333 C4.56333333,25.9253333 2.8965,28.6171667 0.3185,27.7996667 C0.3185,27.7996667 0.229666667,26.6793333 0.1815,26.0476667 L0.185,26.0476667 C0.1675,25.8006667 0.150833333,25.6285 0.150833333,25.6285 C2.44966667,26.5205 4.4695,24.8693333 6.43616667,24.017 C6.93633333,23.8673333 7.71633333,24.1268333 7.94066667,23.5711667 C7.92116667,23.1446667 8.699,22.646 8.0515,22.3483333 C5.17633333,21.9581667 3.26633333,25.426 0.318166667,23.8491667 L0.097,23.4033333 C0.710333333,15.0241667 5.436,6.92316667 13.2778333,2.93666667 C16.4538333,1.12166667 20.3995,0.1965 24.3786667,0.163666667 C29.1808333,0.123833333 34.0331667,1.3835 37.6428333,3.93866667 C41.1481667,6.08883333 44.5011667,9.63233333 46.3208333,13.2295 C48.0611667,16.3811667 48.8621667,19.9176667 49.1013333,23.6826667 C46.06,25.9806667 44.0196667,21.5176667 40.9226667,22.5165 C41.0895,22.9995 41.1818333,23.4991667 41.5358333,23.907 C44.2806667,23.8876667 46.1708333,26.7616667 49.044,25.629 L49.0465,26.0478333 Z M14.1111667,15.7281667 C12.1826667,14.467 9.73766667,15.6545 7.94033333,16.3413333 C7.7735,14.6533333 7.088,13.1155 5.65866667,12.0031667 C5.52,11.9341667 5.32833333,11.789 5.15566667,11.7783333 C5.05233333,11.7718333 4.954,11.8135 4.87766667,11.9456667 C5.5255,15.9311667 2.93466667,18.7121667 1.09866667,21.7355 C1.71,22.2351667 2.69216667,22.1605 3.43366667,22.0136667 C5.38,21.2353333 7.234,19.8806667 9.5515,20.345 C10.2368333,19.177 11.3883333,18.0456667 12.3325,17.1186667 C12.9093333,16.6195 13.7018333,16.3025 14.1111667,15.7281667 Z M20.0081667,18.2311667 C19.9711667,18.4711667 20.0266667,18.899 20.3966667,18.7336667 C20.9723333,17.9365 21.9915,18.5671667 22.6215,18.6233333 L22.6215,18.399 C22.2758333,17.8561667 21.5646667,17.5835 20.8425,17.6106667 C20.6758333,17.6165 20.5065,17.6408333 20.3435,17.6786667 C20.1018333,17.7323333 19.9336667,17.9535 20.0081667,18.2311667 Z M29.0741667,15.8426667 C28.5565,14.6928333 27.3698333,14.2275 26.293,13.9495 C25.7651667,13.8845 25.2173333,13.8405 24.674,13.8353333 C24.5721667,13.8343333 24.4705,13.833 24.3691667,13.8353333 C22.8493333,13.866 21.3971667,14.2561667 20.51,15.5071667 C20.3826667,15.8603333 19.8228333,16.3563333 20.3426667,16.6728333 C21.5108333,16.5981667 22.8438333,16.4516667 23.6225,17.4541667 C23.6225,18.345 24.1976667,19.5301667 23.234,19.9566667 C22.4355,19.2173333 21.4898333,20.2713333 20.621,19.678 C20.2125,19.4366667 19.954,19.7183333 19.7866667,20.0705 C19.5451667,22.369 20.7486667,24.9056667 22.899,26.1845 C23.7705,26.4988333 24.942,26.7978333 25.8515,26.3518333 C28.0391667,25.3331667 28.9453333,22.9985 29.3526667,20.8475 C29.298,20.4381667 29.3175,19.6405 28.7431667,19.6211667 C28.0946667,20.0313333 27.1488333,19.789 26.4615,19.6211667 C26.0551667,19.7523333 26.0365,20.3468333 25.574,20.4595 L25.2921667,20.2346667 C25.0508333,19.2165 24.902,17.7698333 25.8485,17.0653333 C26.9061667,16.6388333 28.1483333,16.4525 29.2421667,16.7871667 C29.4463333,16.4351667 29.1311667,16.158 29.0741667,15.8426667 Z M27.958,17.6708333 C27.8845,17.6726667 27.813,17.6763333 27.7406667,17.6786667 C27.3521667,17.9378333 26.22,17.7515 26.6286667,18.6233333 C27.3336667,18.0656667 28.3163333,18.4565 29.0208333,18.7336667 C29.2813333,18.6043333 29.2248333,18.3446667 29.242,18.1208333 C29.0158333,17.7 28.4753333,17.6605 27.958,17.6708333 Z M36.0303333,9.83183333 C34.658,9.759 33.5088333,10.538 32.2478333,10.8905 C32.138,9.8175 32.9531667,8.68433333 33.1391667,7.60716667 C31.1003333,7.73833333 29.4855,8.9655 27.7988333,9.94583333 C27.4085,9.00266667 27.017,8.05466667 26.6293333,7.108 L28.8541667,4.99383333 L28.9111667,4.71533333 L25.906,4.548 C25.3883333,3.641 25.1843333,2.5485 24.5725,1.71416667 C24.0718333,2.65966667 23.7355,3.66033333 23.2353333,4.605 L20.2336667,4.77283333 L20.2336667,4.99383333 L22.5118333,7.05083333 C22.2333333,8.10816667 21.9745,9.257 21.2891667,10.0561667 C19.9543333,9.25666667 18.6385,8.3865 17.175,7.83133333 C16.8228333,7.71766667 16.3208333,7.53283333 16.0056667,7.77433333 C16.4685,8.79433333 17.1166667,9.8915 17.0076667,11.0048333 C16.3955,10.8921667 15.9143333,10.4996667 15.3391667,10.3346667 C14.6513333,10.147 13.8351667,9.78033333 13.1678333,10.0033333 C14.2805,11.5598333 15.1886667,13.1888333 15.5028333,15.062 C19.194,13.2805 23.4986667,12.3006667 27.967,13.062 C30.0615,13.3953333 31.9875,14.2485 33.8603333,14.9513333 C33.9335,12.9871667 35.1756667,11.4088333 36.0303333,9.83183333 Z M42.369,20.5125 C44.2586667,21.0126667 46.1543333,23.0715 48.1553333,21.7356667 C46.4126667,18.8438333 43.8188333,16.1733333 44.5401667,12.3916667 C44.6156667,12.1335 44.4488333,11.8721667 44.2088333,11.8355 C43.0783333,12.2975 42.2028333,13.4113333 41.7555,14.5061667 C41.5715,15.1536667 41.4625,15.842 41.2033333,16.4523333 C39.849,15.7475 38.4038333,15.0646667 36.7538333,15.2296667 C36.1588333,15.3038333 35.3058333,15.3428333 35.196,15.9536667 C37.0685,16.9543333 38.6083333,18.6243333 39.7558333,20.4026667 C40.5548333,20.2723333 41.5346667,20.3836667 42.369,20.5125 Z M22.568,23.126 L22.6213333,23.4611667 C23.3458333,23.9438333 23.5686667,24.7618333 24.5716667,24.6875 C25.4611667,24.7403333 26.1285,23.907 26.5716667,23.24 C25.368,23.0738333 23.9033333,23.331 22.568,23.126 Z M23.5696667,21.6251667 C23.6058333,21.7736667 23.4778333,21.9961667 23.68,22.0711667 C24.2733333,21.9423333 25.3481667,22.3868333 25.6795,21.6823333 C25.4481667,21.4231667 25.0705,21.3055 24.6741667,21.3055 C24.278,21.3055 23.8668333,21.421 23.5696667,21.6251667 Z" id="inner_artwork" fill="#007042"></path>
                <g id="g4377" transform="translate(22.500000, 20.833333)">
                    <polygon id="rect3815" fill="#FFFFFF" opacity="0.99" points="0.0693333333 0.1485 4.13466667 0.1485 4.13466667 1.81866667 0.0693333333 1.81866667"></polygon>
                    <path d="M0.820333333,1.0415 C1.34566667,1.16583333 1.47566667,1.35216667 1.89083333,1.40416667 C2.33216667,1.39633333 2.2685,1.30666667 3.03833333,1.041 C3.08883333,1.02316667 3.15833333,0.911666667 3.07216667,0.826166667 C2.59416667,0.351666667 2.26383333,0.690666667 1.96416667,0.699666667 C1.56666667,0.704 1.19383333,0.359333333 0.8055,0.807333333 C0.739333333,0.898333333 0.704833333,0.987666667 0.820333333,1.0415 Z" id="path3032-6" fill="#007042"></path>
                </g>
            </g>
        </g>
    </g>
</svg>